inDegrees=yes
name=ik_S48_A08_T01
DataType=double
version=3
OpenSimVersion=4.3-2021-08-27-4bc7ad9
endheader
time	pelvis_tilt	pelvis_list	pelvis_rotation	pelvis_tx	pelvis_ty	pelvis_tz	hip_flexion_r	hip_adduction_r	hip_rotation_r	knee_angle_r	knee_angle_r_beta	ankle_angle_r	subtalar_angle_r	mtp_angle_r	hip_flexion_l	hip_adduction_l	hip_rotation_l	knee_angle_l	knee_angle_l_beta	ankle_angle_l	subtalar_angle_l	mtp_angle_l	lumbar_extension	lumbar_bending	lumbar_rotation	arm_flex_r	arm_add_r	arm_rot_r	elbow_flex_r	pro_sup_r	wrist_flex_r	wrist_dev_r	arm_flex_l	arm_add_l	arm_rot_l	elbow_flex_l	pro_sup_l	wrist_flex_l	wrist_dev_l
19.87999999999967	-4.024218020775996	-0.6589719516810224	31.72333499694128	0	0.9399999999999999	0	32.33611036957271	-9.628567142356335	-9.004181535448975	36.44507101248347	0.6360864852909799	0	0	0	32.33611036957271	-9.628567142356335	-9.004181535448975	36.44507101248347	0.6360864852909799	0	0	0	-1.395339373454441	-1.993139611417376	4.448674104940927	27.45368228015744	-8.45150721420657	-4.394295821387924	53.60745647577622	151.9092482748279	0	0	47.10677504394823	-29.3531816608211	8.675229386124828	95.50717884370576	74.42959856341771	0	0
19.89999999999966	-4.104624004240968	-0.7259133591540815	31.76317706323253	0	0.9399999999999999	0	32.34316627236699	-9.629267957750375	-9.005388206224431	36.45240244244405	0.6362144428826715	0	0	0	32.34316627236699	-9.629267957750375	-9.005388206224431	36.45240244244405	0.6362144428826715	0	0	0	-1.499818448704848	-2.006890414189909	4.482115461989705	27.6529552301747	-8.477863803743757	-4.474371369648322	53.59883145827111	151.913789945511	0	0	46.85668078232543	-28.37310011484177	8.119039315225173	94.16635170929513	75.16758116257371	0	0
19.91999999999966	-4.161709816658473	-0.7827661058329297	31.91176044791456	0	0.9399999999999999	0	32.35152915742161	-9.630093006845168	-9.006812510321172	36.46113442306248	0.6363668446946833	0	0	0	32.35152915742161	-9.630093006845168	-9.006812510321172	36.46113442306248	0.6363668446946833	0	0	0	-1.57989905518083	-2.020193977158319	4.378202745405408	27.67705427515131	-8.501117321701857	-4.564439982989211	53.7479152581909	151.8024075902388	0	0	46.83459014368579	-27.43610324444821	7.736332472912495	89.23147378729028	75.08161917384056	0	0
19.93999999999966	-4.206785389070457	-0.8219979851311671	31.90959012665887	0	0.9399999999999999	0	32.35968583120594	-9.630895445770713	-9.008199532373304	36.46966164575883	0.6365156728067854	0	0	0	32.35968583120594	-9.630895445770713	-9.008199532373304	36.46966164575883	0.6365156728067854	0	0	0	-1.638011853822404	-2.030679639265967	4.435328346996401	27.62691961119134	-8.549380638697359	-4.636072879754632	53.89640131677616	151.8024680014003	0	0	47.01517369475449	-26.70257214330201	7.70661213072241	86.4669428945905	75.49736780845541	0	0
19.95999999999966	-4.289885460317032	-0.8959102056229621	31.83359200451869	0	0.9399999999999999	0	32.36898239558747	-9.631807726320824	-9.009778247760806	36.47938968359919	0.6366854590968584	0	0	0	32.36898239558747	-9.631807726320824	-9.009778247760806	36.47938968359919	0.6366854590968584	0	0	0	-1.747874975001158	-2.050891922974193	4.555591087270709	27.68509706586376	-8.542684720054217	-4.678273459778411	54.05640152205552	151.724714794782	0	0	47.49067583063589	-25.970427008472	7.881155345485489	83.54913461255076	76.01108924625761	0	0
19.97999999999966	-4.333891781853419	-0.9333253362455975	31.64566802835812	0	0.9399999999999999	0	32.37619835060093	-9.632501610843718	-9.010987936659111	36.48706908020115	0.6368194898521289	0	0	0	32.37619835060093	-9.632501610843718	-9.010987936659111	36.48706908020115	0.6368194898521289	0	0	0	-1.806978058105899	-2.062140936728363	4.74020007733844	27.66658773200331	-8.524281790368901	-4.648454161448782	54.20638261048896	151.7218595226567	0	0	48.05806172804492	-25.28623994287502	8.035012945263329	80.47271965205732	76.43633463582989	0	0
19.99999999999966	-4.395047247377625	-0.9623133467151517	31.33022054979347	0	0.9399999999999999	0	32.38341381606769	-9.633203092158178	-9.012206495869604	36.49466357579974	0.6369520388053527	0	0	0	32.38341381606769	-9.633203092158178	-9.012206495869604	36.49466357579974	0.6369520388053527	0	0	0	-1.872209367289871	-2.062177408128691	5.00228787933477	27.67140976029097	-8.467065726459223	-4.523999385523983	54.39509097719461	151.591126343629	0	0	48.75647852784251	-24.63191661874283	8.450806707119048	77.42103960028206	76.63342175846614	0	0
20.01999999999966	-4.417795497838173	-0.9429285018444057	31.12166968347208	0	0.9399999999999999	0	32.39152047216539	-9.634002081248115	-9.013587969296774	36.50308571633969	0.6370990328878404	0	0	0	32.39152047216539	-9.634002081248115	-9.013587969296774	36.50308571633969	0.6370990328878404	0	0	0	-1.879981792281306	-2.039276536129278	5.142577875241462	27.58956875419496	-8.441617020599828	-4.340325969827478	54.50799815768029	151.5010304123204	0	0	49.38014607777849	-24.0470302088168	9.123733680729183	75.41102244628043	76.74428580445334	0	0
20.03999999999966	-4.541238167570454	-0.9724152114939164	30.79123103922037	0	0.9399999999999999	0	32.39979434037578	-9.634815764969764	-9.014996311661902	36.51168758039815	0.6372491637374695	0	0	0	32.39979434037578	-9.634815764969764	-9.014996311661902	36.51168758039815	0.6372491637374695	0	0	0	-1.998954305391877	-2.008166842937719	5.321308664563364	27.87412144108594	-8.460914333436074	-4.168943584277278	54.50758817302442	151.5023337636227	0	0	50.19709197120221	-23.37389092108775	9.801533783669859	72.18755688456532	76.90188878325567	0	0
20.05999999999966	-4.602766310577951	-0.9726118994409982	30.55600656683012	0	0.9399999999999999	0	32.40656513705632	-9.635481303676505	-9.016148701297412	36.51872226044303	0.6373719420660772	0	0	0	32.40656513705632	-9.635481303676505	-9.016148701297412	36.51872226044303	0.6373719420660772	0	0	0	-2.050595666867224	-1.981629820406972	5.442034697611277	27.83698445263799	-8.360798489060064	-4.084051485683555	54.66003220329927	151.5492867530122	0	0	51.08313339459932	-22.77258750909463	10.47075319880357	70.06091517541351	77.12727407403442	0	0
20.07999999999966	-4.655715432400617	-0.9673941868060594	29.98299762288572	0	0.9399999999999999	0	32.41427735834446	-9.63621742145394	-9.01743695107648	36.5269363010992	0.6375153041204198	0	0	0	32.41427735834446	-9.63621742145394	-9.01743695107648	36.5269363010992	0.6375153041204198	0	0	0	-2.084152443013652	-1.958639132481766	5.885910905321168	27.95738210647308	-8.368906408458701	-3.916872391762466	54.72536344079408	151.3662224646115	0	0	51.86308090325045	-22.15510148900776	10.82334817482702	65.58013558596849	77.80984576644329	0	0
20.09999999999966	-4.727198698057993	-0.9685819911789193	29.76542680029341	0	0.9399999999999999	0	32.42376613923754	-9.637150367080098	-9.019052973952729	36.53677006265627	0.6376869356374467	0	0	0	32.42376613923754	-9.637150367080098	-9.019052973952729	36.53677006265627	0.6376869356374467	0	0	0	-2.147239738681988	-1.924649920203829	5.953241072589696	28.06587601177969	-8.361769089965881	-3.924824377999467	54.84347379960126	151.2900047390492	0	0	52.59933821442168	-21.62615587171677	11.23306081567972	63.65224864651776	77.92384257487211	0	0
20.11999999999966	-4.802406931559507	-0.9663819257710803	29.40222230629751	0	0.9399999999999999	0	32.43155185301895	-9.637912898694491	-9.02037598742251	36.544856320697	0.6378280674644234	0	0	0	32.43155185301895	-9.637912898694491	-9.02037598742251	36.544856320697	0.6378280674644234	0	0	0	-2.207212047769396	-1.898030943087138	6.204236264240912	28.20277507743659	-8.39542494431694	-3.800314840773021	54.88684896211134	151.1702755230384	0	0	53.81433434592588	-20.37599451118737	12.22099517026587	59.95501801203043	77.56369386201817	0	0
20.13999999999966	-4.832949137028728	-0.9619750543912624	29.12950124248991	0	0.9399999999999999	0	32.43876003364053	-9.638613294107518	-9.021594892685838	36.55238732680917	0.6379595083170687	0	0	0	32.43876003364053	-9.638613294107518	-9.021594892685838	36.55238732680917	0.6379595083170687	0	0	0	-2.227888777236962	-1.890770361797341	6.431077118963424	28.15642752132201	-8.346391267007908	-3.985454562310417	55.02607299942189	151.2471205986559	0	0	54.3179885786686	-19.83067994392307	12.50351919524522	57.17290093559122	77.1433399207268	0	0
20.15999999999966	-4.903066217468897	-0.9496949192361026	29.13809658077588	0	0.9399999999999999	0	32.44670948789445	-9.639381995796894	-9.022935226115212	36.56072052732471	0.6381049501032937	0	0	0	32.44670948789445	-9.639381995796894	-9.022935226115212	36.56072052732471	0.6381049501032937	0	0	0	-2.288030462137929	-1.837665247521997	6.301159710586818	28.21707053398982	-8.338925483142548	-3.925443387557191	55.09474919765412	151.1969994810753	0	0	54.25108921437302	-19.62471474297518	12.26298769888965	53.25237218612973	76.79123336646911	0	0
20.17999999999966	-4.996782277996019	-0.9632461258382345	28.91274870698545	0	0.9399999999999999	0	32.45381989866309	-9.640075141382843	-9.02414068161044	36.56811149112831	0.6382339467565622	0	0	0	32.45381989866309	-9.640075141382843	-9.02414068161044	36.56811149112831	0.6382339467565622	0	0	0	-2.376102240344502	-1.808901805799186	6.41362049277005	28.36856442433597	-8.303429306656282	-3.883007252711462	55.14170955668049	151.2994094080917	0	0	54.83630596922938	-19.06092813412432	12.7972650378027	50.89720521419651	76.6825546409336	0	0
